<svg xmlns="http://www.w3.org/2000/svg" viewBox="0 0 150 149.967"><path data-name="Icon fa-brands-instagram" d="M75.016 36.533a38.45 38.45 0 1 0 38.45 38.45 38.389 38.389 0 0 0-38.45-38.45Zm0 63.447a25 25 0 1 1 25-25 25.043 25.043 0 0 1-25 25Zm48.989-65.018a8.968 8.968 0 1 1-8.968-8.968 8.947 8.947 0 0 1 8.968 8.968Zm25.466 9.1c-.569-12.013-3.313-22.655-12.114-31.422C128.59 3.873 117.948 1.129 105.935.526c-12.381-.7-49.492-.7-61.874 0-11.98.569-22.621 3.313-31.422 12.08S1.129 32.016.527 44.029c-.7 12.381-.7 49.492 0 61.874.569 12.013 3.313 22.655 12.114 31.422s19.409 11.511 31.422 12.114c12.381.7 49.492.7 61.874 0 12.013-.569 22.655-3.313 31.422-12.114 8.767-8.767 11.511-19.409 12.114-31.422.7-12.381.7-49.459 0-61.84Zm-16 75.125a25.308 25.308 0 0 1-14.255 14.255c-9.872 3.915-33.3 3.012-44.205 3.012s-34.367.87-44.205-3.012a25.308 25.308 0 0 1-14.255-14.255c-3.915-9.872-3.012-33.3-3.012-44.205s-.87-34.367 3.012-44.205a25.308 25.308 0 0 1 14.26-14.255c9.872-3.915 33.3-3.012 44.205-3.012s34.367-.87 44.205 3.012a25.308 25.308 0 0 1 14.255 14.255c3.915 9.872 3.012 33.3 3.012 44.205s.904 34.368-3.011 44.206Z" fill="#ffa5e9"/></svg>
