<svg id="Capa_1" data-name="Capa 1" xmlns="http://www.w3.org/2000/svg" viewBox="0 0 100 100">
  <defs>
    <style>
      path { fill: #000; }

        @media (prefers-color-scheme: dark) {
            path { fill: #FFF; }
        }
    </style>
  </defs>
  <path class="cls-1" d="M60.47 90.28c-3.4.88-6.92 1.33-10.47 1.33s-7.07-.44-10.46-1.32c-.25-.06-.49-.13-.73-.2l-3.11 5.68-.45.89s.64.31 2.45.74c3.76.89 7.61 1.48 11.51 1.55H50a49.472 49.472 0 0 0 12.77-1.68c1.32-.35 1.36-.39 1.36-.39l-3.3-6.7c-.12.03-.24.06-.36.1ZM8.39 50c0-5.24.95-10.31 2.83-15.12l2.87-18.16a52.151 52.151 0 0 0-3.68 4.46 49.408 49.408 0 0 0-5.05 8.67c-2.87 6.34-4.32 13.12-4.32 20.14 0 4.34.57 8.65 1.69 12.8.72 2.68 1.67 5.29 2.84 7.8l2.88-18.24c-.04-.78-.07-1.57-.07-2.36ZM86.74 30.44c1.57 2.94 2.78 6.08 3.6 9.3.84 3.33 1.27 6.78 1.27 10.26 0 7.38-1.91 14.5-5.56 20.8l4.77 6.24c5.33-8.02 8.14-17.35 8.14-27.04a48.832 48.832 0 0 0-5.74-23.02c-.1-.18-.2-.37-.3-.55-3.08-5.62-7.01-10.41-12.04-14.44l-.22.4-3.37 6.21c3.83 3.34 7.05 7.37 9.44 11.84ZM40.25 9.54A41.87 41.87 0 0 1 50 8.39c3.76 0 7.43.49 10.98 1.46l3.5-2.47 3.91-2.76C62.56 2.25 56.38 1.05 50 1.05h-.73c-3.62.05-7.17.49-10.67 1.33l-.09 1.04-.21 3.12-.24 3.6c.73-.22 1.46-.41 2.19-.59Z"/>
  <path class="cls-1" d="M70.35 7.03 33.38 33.15l1.81-26.63H18.85L6.35 85.56l64.48-74.58-.48-3.95zM60.69 42.71l16.73-30.87-.75-4.57-65.85 76.71-1.24 8.65 24.28.03 16.39-29.97 15.33 29.94h28.07l-1.53-8.76-31.43-41.16z"/>
</svg>